<svg width="208" height="32" viewBox="0 0 208 32" fill="none" xmlns="http://www.w3.org/2000/svg">
<path d="M24.1029 3.42302C25.0963 4.78053 25.5931 6.40454 25.5931 8.29783C25.5931 10.2467 25.0907 11.8151 24.0887 12.9978C23.5299 13.6612 22.703 14.2692 21.6136 14.8161C23.2703 15.4074 24.5206 16.3485 25.3645 17.6311C26.2083 18.9164 26.6289 20.4765 26.6289 22.3115C26.6289 24.2048 26.1462 25.901 25.1838 27.4029C24.5714 28.3995 23.8037 29.2379 22.8836 29.9153C21.8478 30.6953 20.6257 31.2283 19.2146 31.5171C17.8062 31.8058 16.2765 31.9501 14.6282 31.9501H0V0.0195312H15.6866C19.6464 0.0778292 22.4518 1.21325 24.1029 3.42302ZM6.47447 4.76387V11.804H14.3658C15.7741 11.804 16.92 11.5403 17.7977 11.0129C18.6755 10.4854 19.1158 9.54985 19.1158 8.209C19.1158 6.72101 18.5344 5.73828 17.3716 5.26357C16.3696 4.93044 15.0911 4.76665 13.536 4.76665H6.47447V4.76387ZM6.47447 17.0897V25.604H14.3545C15.7628 25.604 16.8579 25.4152 17.6425 25.0404C19.065 24.3464 19.7762 23.0194 19.7762 21.054C19.7762 19.3939 19.0875 18.2529 17.7074 17.6311C16.9369 17.284 15.856 17.1036 14.4645 17.0897H6.47447Z" fill="#FDB913"/>
<path d="M50.4409 28.2605C48.4145 30.7201 45.3381 31.95 41.2119 31.95C37.0856 31.95 34.0092 30.7201 31.9828 28.2605C29.9563 25.8009 28.9431 22.8388 28.9431 19.3743C28.9431 15.968 29.9563 13.017 31.9828 10.5213C34.0092 8.02561 37.0856 6.77637 41.2119 6.77637C45.3381 6.77637 48.4145 8.02561 50.4409 10.5213C52.4674 13.017 53.4806 15.968 53.4806 19.3743C53.4806 22.8388 52.4674 25.8009 50.4409 28.2605ZM45.42 24.8487C46.4022 23.5662 46.8961 21.7423 46.8961 19.377C46.8961 17.0118 46.405 15.1907 45.42 13.9165C44.435 12.6395 43.0266 12.001 41.1921 12.001C39.3576 12.001 37.9436 12.6395 36.9529 13.9165C35.9623 15.1935 35.4656 17.0146 35.4656 19.377C35.4656 21.7423 35.9623 23.5662 36.9529 24.8487C37.9436 26.1313 39.3576 26.7725 41.1921 26.7725C43.0266 26.7725 44.4378 26.1313 45.42 24.8487Z" fill="#FDB913"/>
<path d="M61.8771 23.6108C62.0097 24.7073 62.2976 25.4874 62.7407 25.951C63.5225 26.7727 64.9676 27.1864 67.0787 27.1864C68.3177 27.1864 69.3027 27.0059 70.0337 26.645C70.7647 26.2841 71.1288 25.7428 71.1288 25.021C71.1288 24.327 70.8352 23.7995 70.2454 23.4387C69.6583 23.0778 67.4682 22.4559 63.6777 21.5759C60.9485 20.9124 59.0293 20.0824 57.9117 19.0857C56.7969 18.103 56.238 16.69 56.238 14.8411C56.238 12.6619 57.1101 10.788 58.8544 9.21951C60.5986 7.6538 63.0512 6.86816 66.215 6.86816C69.2152 6.86816 71.6622 7.4567 73.5531 8.63376C75.4441 9.81082 76.5279 11.8429 76.8101 14.7328H70.5304C70.4429 13.9389 70.2143 13.3115 69.8474 12.8479C69.1559 12.0095 67.9762 11.5903 66.3138 11.5903C64.945 11.5903 63.9685 11.7985 63.387 12.2177C62.8056 12.6369 62.5149 13.1282 62.5149 13.6918C62.5149 14.3997 62.8226 14.9133 63.4435 15.2297C64.0616 15.5629 66.2461 16.132 69.997 16.9426C72.4976 17.52 74.3716 18.3945 75.6191 19.5632C76.8525 20.7486 77.4678 22.2283 77.4678 24.005C77.4678 26.3452 76.5815 28.2552 74.8091 29.7348C73.0367 31.2145 70.2962 31.9557 66.5904 31.9557C62.8085 31.9557 60.0172 31.1728 58.2165 29.6043C56.413 28.0386 55.5127 26.0398 55.5127 23.6135H61.8771V23.6108Z" fill="#FDB913"/>
<path d="M86.1549 23.6108C86.2876 24.7073 86.5754 25.4874 87.0186 25.951C87.8003 26.7727 89.2454 27.1864 91.3565 27.1864C92.5955 27.1864 93.5805 27.0059 94.3115 26.645C95.0425 26.2841 95.4066 25.7428 95.4066 25.021C95.4066 24.327 95.113 23.7995 94.5232 23.4387C93.9361 23.0778 91.746 22.4559 87.9556 21.5759C85.2264 20.9124 83.3072 20.0824 82.1895 19.0857C81.0747 18.103 80.5159 16.69 80.5159 14.8411C80.5159 12.6619 81.388 10.788 83.1322 9.21951C84.8764 7.6538 87.329 6.86816 90.4929 6.86816C93.493 6.86816 95.94 7.4567 97.831 8.63376C99.7219 9.81082 100.806 11.8429 101.088 14.7328H94.8111C94.7236 13.9389 94.495 13.3115 94.128 12.8479C93.4366 12.0095 92.2568 11.5903 90.5945 11.5903C89.2256 11.5903 88.2491 11.7985 87.6677 12.2177C87.0863 12.6369 86.7956 13.1282 86.7956 13.6918C86.7956 14.3997 87.1032 14.9133 87.7241 15.2297C88.3422 15.5629 90.5267 16.132 94.2776 16.9426C96.7782 17.52 98.6523 18.3945 99.8997 19.5632C101.133 20.7486 101.748 22.2283 101.748 24.005C101.748 26.3452 100.862 28.2552 99.0897 29.7348C97.3173 31.2145 94.5768 31.9557 90.8711 31.9557C87.0891 31.9557 84.2978 31.1728 82.4971 29.6043C80.6937 28.0386 79.7933 26.0398 79.7933 23.6135H86.1549V23.6108Z" fill="#FDB913"/>
<path d="M106.905 22.1171C107.018 23.4691 107.326 24.6156 107.828 25.5567C108.327 26.5006 108.971 27.2668 109.758 27.8581C110.546 28.4494 111.455 28.8797 112.482 29.1462C113.512 29.4127 114.613 29.5459 115.787 29.5459C117.159 29.5459 118.347 29.3766 119.349 29.0407C120.351 28.702 121.166 28.2467 121.796 27.6693C122.425 27.0919 122.891 26.4256 123.19 25.665C123.489 24.9043 123.642 24.102 123.642 23.2581C123.642 22.0755 123.371 21.1205 122.826 20.3876C122.281 19.6575 121.576 19.0579 120.701 18.5943C119.829 18.1306 118.827 17.7587 117.698 17.4755C116.566 17.1951 115.409 16.9203 114.221 16.6538C113.032 16.3873 111.875 16.0708 110.743 15.7043C109.612 15.3379 108.613 14.8465 107.74 14.2275C106.868 13.6084 106.16 12.8144 105.615 11.8428C105.071 10.8712 104.8 9.64136 104.8 8.1506C104.8 7.10957 105.02 6.0963 105.466 5.11078C105.909 4.12527 106.566 3.25358 107.438 2.49293C108.311 1.73228 109.406 1.12709 110.721 0.677366C112.042 0.224863 113.557 0 115.273 0C117.018 0 118.542 0.238744 119.843 0.716231C121.144 1.19372 122.225 1.84888 123.083 2.67893C123.941 3.50898 124.584 4.47228 125.013 5.56884C125.442 6.66539 125.657 7.83413 125.657 9.07226H122.868C122.868 7.92019 122.659 6.92079 122.247 6.07686C121.832 5.23293 121.268 4.54446 120.551 4.00868C119.837 3.47567 119.021 3.08146 118.104 2.82606C117.187 2.57344 116.244 2.44574 115.273 2.44574C113.786 2.44574 112.533 2.65117 111.52 3.05648C110.504 3.46456 109.696 3.99202 109.095 4.63885C108.494 5.28568 108.079 6.00468 107.851 6.79032C107.622 7.57873 107.58 8.36714 107.721 9.15277C107.893 10.1383 108.294 10.9267 108.923 11.5152C109.552 12.1065 110.323 12.5923 111.24 12.9727C112.155 13.353 113.165 13.6639 114.266 13.8999C115.366 14.1386 116.49 14.394 117.636 14.6605C118.779 14.927 119.888 15.2463 120.96 15.61C122.033 15.9764 122.984 16.4678 123.814 17.0868C124.644 17.7059 125.31 18.4999 125.809 19.4715C126.309 20.4431 126.56 21.6591 126.56 23.1221C126.56 25.937 125.572 28.1162 123.599 29.6653C121.626 31.2116 118.849 31.9861 115.273 31.9861C113.67 31.9861 112.183 31.7807 110.811 31.3754C109.437 30.9673 108.251 30.3482 107.249 29.5182C106.247 28.6881 105.468 27.661 104.91 26.4367C104.351 25.2125 104.074 23.7717 104.074 22.1116H106.905V22.1171Z" fill="#2D5DA9"/>
<path d="M139.435 31.4613C139.105 31.5196 138.668 31.6224 138.129 31.7723C137.587 31.9194 136.986 31.9944 136.325 31.9944C134.973 31.9944 133.943 31.6612 133.235 30.995C132.529 30.3287 132.173 29.1405 132.173 27.4221V10.6073H128.88V8.38925H132.173V2.00146H134.88V8.38925H139.255V10.6073H134.88V26.3561C134.88 26.9197 134.894 27.4055 134.925 27.8191C134.953 28.2327 135.044 28.5742 135.196 28.8407C135.346 29.1072 135.58 29.2988 135.896 29.4181C136.212 29.5375 136.655 29.5958 137.225 29.5958C137.587 29.5958 137.954 29.568 138.332 29.507C138.707 29.4487 139.077 29.3737 139.438 29.2849V31.4613H139.435Z" fill="#2D5DA9"/>
<path d="M153.462 17.9726C153.973 17.9143 154.583 17.8255 155.288 17.7061C155.994 17.5895 156.572 17.4258 157.024 17.2175C157.476 17.0121 157.752 16.6623 157.859 16.1737C157.964 15.6851 158.017 15.2354 158.017 14.8218C158.017 13.4615 157.574 12.3455 156.688 11.471C155.802 10.5993 154.306 10.1635 152.201 10.1635C151.269 10.1635 150.411 10.244 149.629 10.4078C148.848 10.5716 148.165 10.852 147.578 11.2517C146.991 11.6515 146.511 12.1845 146.135 12.848C145.76 13.5142 145.512 14.3498 145.39 15.3548H142.638C142.729 13.9945 143.045 12.8341 143.587 11.8736C144.129 10.913 144.826 10.1274 145.684 9.52222C146.542 8.91703 147.532 8.47286 148.661 8.19247C149.79 7.91209 150.984 7.77051 152.249 7.77051C153.423 7.77051 154.526 7.89543 155.565 8.14806C156.603 8.40068 157.504 8.79766 158.271 9.34455C159.039 9.89144 159.64 10.6243 160.075 11.5404C160.51 12.4565 160.73 13.5809 160.73 14.9134V27.4252C160.73 28.4607 160.916 29.1186 161.294 29.399C161.67 29.6794 162.429 29.6128 163.572 29.1992V31.284C163.36 31.3423 163.053 31.4311 162.646 31.5505C162.24 31.6671 161.842 31.7282 161.449 31.7282C161.029 31.7282 160.622 31.6838 160.233 31.5949C159.781 31.5366 159.42 31.395 159.149 31.173C158.878 30.9509 158.661 30.6844 158.494 30.3734C158.328 30.0625 158.215 29.7238 158.156 29.3518C158.096 28.9826 158.065 28.5912 158.065 28.1748C156.922 29.4185 155.613 30.3651 154.142 31.0147C152.669 31.6643 151.074 31.9919 149.361 31.9919C148.34 31.9919 147.355 31.8587 146.406 31.5921C145.458 31.3256 144.625 30.912 143.903 30.3512C143.18 29.7905 142.61 29.102 142.19 28.2886C141.769 27.4752 141.557 26.5063 141.557 25.382C141.557 21.4788 144.278 19.1719 149.723 18.4612L153.462 17.9726ZM158.017 19.0831C156.874 19.5578 155.717 19.8659 154.543 20.0158C153.372 20.163 152.198 20.2824 151.024 20.3712C148.949 20.5183 147.332 20.9764 146.175 21.7454C145.018 22.5143 144.439 23.6831 144.439 25.2488C144.439 25.9595 144.58 26.573 144.868 27.0893C145.153 27.6085 145.529 28.036 145.997 28.3747C146.463 28.7161 147.005 28.966 147.62 29.1298C148.235 29.2935 148.859 29.374 149.491 29.374C150.575 29.374 151.625 29.2408 152.649 28.9743C153.671 28.7078 154.58 28.3025 155.379 27.7556C156.174 27.2087 156.815 26.5147 157.295 25.6707C157.775 24.8268 158.017 23.8302 158.017 22.6753V19.0831Z" fill="#2D5DA9"/>
<path d="M182.612 15.6211C182.129 13.9055 181.305 12.5674 180.131 11.6069C178.957 10.6464 177.469 10.1661 175.666 10.1661C174.283 10.1661 173.095 10.4465 172.104 11.01C171.111 11.5736 170.301 12.3176 169.669 13.2503C169.036 14.1831 168.571 15.2325 168.271 16.4012C167.969 17.5699 167.82 18.747 167.82 19.9296C167.82 21.1428 167.961 22.3254 168.249 23.4802C168.534 24.6351 168.994 25.6706 169.626 26.5867C170.258 27.5028 171.068 28.2357 172.062 28.7826C173.055 29.3294 174.258 29.6043 175.669 29.6043C177.684 29.6043 179.301 29.0574 180.518 27.9636C181.734 26.8698 182.51 25.3624 182.84 23.4386H185.728C185.488 24.71 185.104 25.8704 184.576 26.9198C184.048 27.9692 183.374 28.8714 182.547 29.6265C181.72 30.3816 180.735 30.9646 179.592 31.3782C178.449 31.7918 177.142 32 175.669 32C173.803 32 172.197 31.6891 170.843 31.0673C169.491 30.4454 168.376 29.5959 167.504 28.5161C166.632 27.4362 165.985 26.1564 165.565 24.6795C165.144 23.1998 164.933 21.6175 164.933 19.9324C164.933 18.3361 165.164 16.8037 165.633 15.3407C166.098 13.8777 166.784 12.5841 167.684 11.4598C168.588 10.3354 169.705 9.44153 171.046 8.77527C172.384 8.10901 173.925 7.77588 175.669 7.77588C178.375 7.77588 180.563 8.4116 182.231 9.68305C183.899 10.9545 184.943 12.9366 185.366 15.6294H182.612V15.6211Z" fill="#2D5DA9"/>
<path d="M188.206 31.9915V0.0498047H190.912V19.9266L202.368 9.0138H206.065L197.316 17.3088L207.104 31.9943H204.081L195.332 19.1715L190.912 23.2968V31.9915H188.206Z" fill="#2D5DA9"/>
</svg>
